<svg width="919" height="213" viewBox="0 0 919 213" fill="none" xmlns="http://www.w3.org/2000/svg">
<path d="M786.504 204H741V8.00003H783.827L874.835 125.333V8.00003H919V204H872.158L786.504 90.6667V204Z" fill="#121F16"/>
<path d="M712 8.00003V53.3334L666 8.00003H712Z" fill="#C08013"/>
<path d="M666 204H712V82.6667H666V204Z" fill="#121F16"/>
<path fill-rule="evenodd" clip-rule="evenodd" d="M551.81 211.366C545.662 212.438 539.549 212.98 533.5 213V200.521C536.338 200.523 539.184 200.395 542.031 200.133C566.291 197.886 589.72 185.696 605.158 167.265C634.912 131.776 634.912 81.2674 605.158 45.7784C589.72 27.3474 566.291 15.1571 542.031 12.9104C539.187 12.6493 536.341 12.5218 533.5 12.5252V3.05176e-05C556.652 -0.00323486 578.838 7.55768 598.417 22.23C603.494 26.016 614.022 36.5421 617.809 41.6179C628.753 56.2213 635.453 71.4487 638.366 88.2155C643.526 117.797 636.41 146.546 617.809 171.425C614.022 176.501 603.494 187.027 598.417 190.813C583.811 201.755 568.58 208.454 551.81 211.366Z" fill="#CAAD21"/>
<path d="M468.583 22.23C485.52 9.54045 504.204 2.21797 523.929 0.428955C527.135 0.143066 530.326 0.000488281 533.5 3.05176e-05V12.5252C512.355 12.5507 491.539 19.8313 474.7 33.2553C452.77 50.7294 439.454 78.3967 439.454 106.522C439.454 133.773 452.021 160.816 472.744 178.165C490.029 192.646 511.524 200.502 533.5 200.521V213C510.439 213.073 488.297 205.546 468.583 190.813C463.506 187.027 452.978 176.501 449.191 171.425C430.59 146.546 423.474 117.797 428.634 88.2155C431.547 71.4487 438.247 56.2213 449.191 41.6179C452.978 36.5421 463.506 26.016 468.583 22.23Z" fill="#FFDF58"/>
<path d="M542.031 12.9104C566.291 15.1571 589.72 27.3474 605.158 45.7784C634.912 81.2674 634.912 131.776 605.158 167.265C589.72 185.696 566.291 197.886 542.031 200.133C539.184 200.395 536.338 200.523 533.5 200.521V187.5V25V12.5252C536.341 12.5218 539.187 12.6493 542.031 12.9104Z" fill="#CAAD21"/>
<path d="M472.744 178.165C452.021 160.816 439.454 133.773 439.454 106.522C439.454 78.3967 452.77 50.7294 474.7 33.2553C491.539 19.8313 512.355 12.5507 533.5 12.5252V25V187.5V200.521C511.524 200.502 490.029 192.646 472.744 178.165Z" fill="#FFDF58"/>
<path fill-rule="evenodd" clip-rule="evenodd" d="M553.891 184.947C546.192 186.902 542.114 187.402 533.5 187.402V175.076C540.637 175.076 547.773 173.984 554.432 171.8C575.654 164.852 591.842 148.667 598.792 127.449C602.329 116.632 603.036 103.859 600.706 92.5839C599.249 85.6775 595.837 77.0237 592.258 71.1574C580.731 52.3935 561.922 40.5361 540.2 38.331C537.959 38.1029 535.724 37.9859 533.5 37.9776V25.5709C538.088 25.7001 543.669 26.0505 545.984 26.432C563.628 29.386 578.359 36.9165 590.719 49.3148C601.163 59.7576 608.404 72.3639 611.941 86.1352C613.897 93.8321 614.397 97.9094 614.397 106.522C614.397 115.134 613.897 119.211 611.941 126.908C604.784 154.908 581.896 177.791 553.891 184.947Z" fill="#C08013"/>
<path d="M522.472 26.2656C524.303 26.016 526.384 25.7247 527.05 25.6415C528.069 25.496 530.584 25.4887 533.5 25.5709V37.9776C515.442 37.9107 498.141 45.0173 485.062 58.0934C477.155 65.9984 471.704 74.9018 468.209 85.5943C463.839 98.9079 463.839 114.135 468.209 127.449C475.158 148.667 491.346 164.852 512.568 171.8C519.227 173.984 526.363 175.076 533.5 175.076V187.402C524.886 187.402 520.808 186.902 513.109 184.947C485.104 177.791 462.216 154.908 455.059 126.908C453.103 119.211 452.604 115.134 452.604 106.522C452.604 97.9094 453.103 93.8321 455.059 86.1352C463.048 54.765 490.43 30.4261 522.472 26.2656Z" fill="#CEA018"/>
<path d="M540.2 38.331C561.922 40.5361 580.731 52.3935 592.258 71.1574C595.837 77.0237 599.249 85.6775 600.706 92.5839C603.036 103.859 602.329 116.632 598.792 127.449C591.842 148.667 575.654 164.852 554.432 171.8C547.773 173.984 540.637 175.076 533.5 175.076V37.9776C535.724 37.9859 537.959 38.1029 540.2 38.331Z" fill="#C08013"/>
<path d="M512.568 171.8C491.346 164.852 475.158 148.667 468.209 127.449C463.839 114.135 463.839 98.9079 468.209 85.5943C471.704 74.9018 477.155 65.9984 485.062 58.0934C498.141 45.0173 515.442 37.9107 533.5 37.9776V175.076C526.363 175.076 519.227 173.984 512.568 171.8Z" fill="#CEA018"/>
<path d="M561.672 74.3611C560.465 75.0268 558.551 75.11 542.238 75.3181C538.682 75.3606 535.819 75.3962 533.5 75.433V50.4123C534.454 50.4174 535.413 50.6774 536.413 51.1872C538.909 52.4769 539.742 54.4324 539.742 59.0921V62.8366H549.729C558.967 62.8366 559.883 62.9198 561.381 63.6687C563.253 64.6256 564.71 66.9971 564.71 69.0773C564.71 70.9495 563.253 73.529 561.672 74.3611Z" fill="#CAAD21"/>
<path fill-rule="evenodd" clip-rule="evenodd" d="M530.503 51.2288C528.09 52.4769 527.258 54.5156 527.258 59.0921V62.8366H526.134C525.468 62.8366 523.679 63.1278 522.056 63.4606C510.82 65.8321 502.29 76.3166 502.29 87.7996C502.29 98.3672 509.572 108.269 519.767 111.598C522.098 112.346 523.845 112.513 532.667 112.721C532.952 112.729 533.23 112.736 533.5 112.744V100.3C525.06 100.065 523.876 99.9237 522.222 99.1577C519.726 98.0344 517.021 95.3301 515.897 92.8338C514.649 90.171 514.649 85.4281 515.897 82.7654C517.021 80.2691 519.726 77.5647 522.222 76.3998C523.679 75.7378 524.477 75.5761 533.5 75.433V50.4123C532.508 50.4069 531.522 50.6773 530.503 51.2288ZM533.5 162.637C532.563 162.637 531.627 162.377 530.587 161.856C528.09 160.567 527.258 158.611 527.258 153.951V150.207H517.27C508.032 150.207 507.117 150.124 505.619 149.375C503.746 148.418 502.29 146.047 502.29 143.966C502.29 142.094 503.746 139.515 505.327 138.682C506.534 138.017 508.448 137.934 524.761 137.726C528.318 137.683 531.181 137.647 533.5 137.611V162.637Z" fill="#FFDF58"/>
<path d="M551.102 120.21C549.979 117.714 547.274 115.009 544.777 113.886C543.124 113.12 541.939 112.979 533.5 112.744V100.3C533.77 100.307 534.047 100.315 534.332 100.323C543.154 100.531 544.902 100.697 547.232 101.446C557.427 104.774 564.71 114.676 564.71 125.244C564.71 136.727 556.179 147.211 544.943 149.583C543.362 149.916 541.531 150.207 540.907 150.207H539.742V153.951C539.742 158.611 538.909 160.567 536.413 161.856C535.372 162.376 534.436 162.636 533.5 162.637V137.611C542.522 137.467 543.32 137.306 544.777 136.644C547.274 135.479 549.979 132.775 551.102 130.278C552.351 127.616 552.351 122.873 551.102 120.21Z" fill="#CAAD21"/>
<path d="M480.568 101.155C478.778 102.07 477.322 104.525 477.322 106.522C477.322 109.684 480.401 112.762 483.606 112.762C486.602 112.762 489.806 109.517 489.806 106.522C489.806 103.443 486.56 100.239 483.522 100.281C482.732 100.322 481.4 100.697 480.568 101.155Z" fill="#FFDF58"/>
<path d="M580.44 101.155C578.651 102.07 577.194 104.525 577.194 106.522C577.194 109.684 580.274 112.762 583.478 112.762C586.474 112.762 589.678 109.517 589.678 106.522C589.678 103.443 586.433 100.239 583.395 100.281C582.604 100.322 581.272 100.697 580.44 101.155Z" fill="#CAAD21"/>
<path d="M291.441 8.96545C279.702 11.2231 269.697 14.8918 257.692 21.3825C248.087 26.6033 243.285 30.4131 233.547 40.7136C223.142 51.5785 220.474 55.3883 215.272 66.8176C208.602 81.3512 205 96.8725 205 110.559C205 124.246 208.602 139.768 215.272 154.301C220.474 165.731 223.142 169.54 233.547 180.405C247.287 194.939 261.693 203.969 280.502 209.614C295.576 214.129 322.522 214.129 337.596 209.614C353.337 204.816 370.145 195.08 380.95 184.497C389.754 175.89 400.692 161.921 399.625 160.651C398.825 159.945 357.872 143.013 356.805 143.013C356.271 143.013 353.47 145.694 350.535 148.939C323.456 180.123 273.699 172.645 256.091 134.829C251.288 124.67 251.022 123.4 251.022 110.559C251.022 97.7191 251.288 96.4492 255.957 86.2898C273.566 48.6153 320.921 41.1369 349.468 71.3329L357.338 79.5168L377.481 71.7562C388.42 67.382 398.425 63.4311 399.358 62.7256C400.826 61.879 399.892 59.7625 395.356 53.2717C382.017 34.0817 360.54 18.4193 338.396 11.7875C327.191 8.40105 301.846 6.84892 291.441 8.96545Z" fill="#121F16"/>
<path d="M154.416 7.00003L103.831 142.589H153.431L205 7.00003H154.416Z" fill="#D79711"/>
<path d="M51.9156 7.00003H0L78.539 203H130.455L103.831 142.589L51.9156 7.00003Z" fill="#121F16"/>
</svg>
