<svg width="546" height="683" viewBox="0 0 546 683" fill="none" xmlns="http://www.w3.org/2000/svg">
<path d="M166.452 2.68246C164.052 4.28246 143.252 29.8825 120.052 59.4825C79.2525 111.749 78.0525 113.482 78.0525 119.216C78.0525 122.549 78.9858 126.682 80.1858 128.549C84.1858 134.416 88.5858 135.749 105.386 135.749C122.719 135.749 128.052 137.216 132.052 143.216C134.452 146.816 134.719 150.149 135.386 183.216C136.319 231.216 134.319 229.082 175.652 229.082C216.319 229.082 215.386 230.282 215.386 180.682V146.416L219.919 141.349L224.452 136.416L243.786 135.749C261.786 135.082 263.386 134.816 266.453 132.016C271.119 127.616 273.253 122.016 272.186 116.816C271.653 113.749 258.452 96.0158 230.052 59.7491C207.252 30.8158 187.252 5.61579 185.519 3.88246C180.852 -0.784208 171.919 -1.31754 166.452 2.68246Z" fill="black"/>
<path d="M21.3859 272.149C13.9192 275.749 5.51919 284.282 2.31919 291.616C1.25252 294.282 0.185857 300.416 0.185857 305.216C-0.0808099 321.482 10.4525 335.616 26.3192 340.416C32.1859 342.149 47.3859 342.416 132.186 342.416H231.119L243.119 333.349C258.319 322.016 282.719 309.216 300.719 303.216C314.053 298.816 338.719 293.082 344.586 293.082C348.586 293.082 348.053 290.682 342.319 283.216C339.386 279.082 334.853 275.216 330.719 273.216L324.186 269.749L176.053 269.482L28.0525 269.082L21.3859 272.149Z" fill="black"/>
<path d="M336.052 334.416C271.252 347.482 217.119 398.682 200.719 462.416C194.852 485.616 193.519 514.282 197.386 536.416C208.586 600.016 254.986 653.749 315.919 673.616C335.519 680.016 346.452 681.749 370.052 681.749C388.186 681.749 394.452 681.216 405.919 678.549C441.119 670.816 468.586 655.882 493.519 631.082C524.052 600.682 540.452 565.749 544.852 521.749C548.319 487.749 539.786 448.949 522.319 419.082C496.586 375.082 449.652 342.682 398.852 333.749C382.452 330.949 351.652 331.216 336.052 334.416ZM380.452 385.882C384.719 388.682 388.319 395.082 389.386 401.749C390.052 407.082 390.719 407.749 395.119 409.216C404.719 412.282 412.852 417.216 415.386 421.482C418.852 427.082 418.852 436.416 415.386 442.149C409.519 451.616 399.252 454.149 386.986 448.682C378.852 445.216 364.452 444.682 358.986 447.616C354.186 450.149 351.119 456.682 351.652 463.082C352.052 467.749 352.852 468.949 358.452 472.549C362.052 474.949 371.252 479.349 379.119 482.282C386.986 485.349 396.986 489.482 401.386 491.482C412.186 496.416 423.119 507.349 428.719 518.949C432.719 526.949 433.386 529.749 433.786 540.549C434.319 550.416 433.786 554.816 431.519 562.149C426.319 579.349 413.386 594.682 397.919 602.149C390.586 605.616 390.319 605.882 389.652 612.149C388.186 623.482 380.852 630.416 369.786 630.416C359.519 630.416 350.052 621.616 350.052 612.282C350.052 608.416 349.519 608.016 345.119 607.082C330.586 604.416 311.919 593.749 308.319 586.016C303.919 576.949 306.586 567.349 315.386 560.816C322.186 555.882 327.652 556.149 339.786 562.282C358.186 571.482 376.452 571.349 386.186 561.882C391.652 556.682 394.052 550.816 394.052 543.082C394.052 533.349 389.252 529.349 366.719 520.416C335.519 508.016 322.452 498.682 315.519 483.882C312.452 477.216 312.052 474.816 312.052 461.749C312.052 447.749 312.319 446.682 316.586 437.749C322.186 426.282 332.052 416.149 342.452 411.349C349.652 407.882 350.052 407.349 350.052 402.949C350.052 387.349 367.519 377.616 380.452 385.882Z" fill="black"/>
<path d="M26.0525 383.616C19.5191 385.616 14.4525 388.949 9.51912 394.416C2.45246 402.282 0.319124 408.149 0.185791 419.082C0.185791 433.749 6.98579 444.549 21.2525 452.149C26.5858 455.082 27.6525 455.082 93.7858 455.482C147.652 455.749 160.852 455.482 161.252 454.149C161.652 453.216 163.386 447.349 165.386 441.082C169.252 428.416 180.586 404.016 187.652 392.949C190.186 388.949 192.719 384.949 193.252 384.016C194.052 382.816 177.386 382.416 111.786 382.549C66.4525 382.549 27.9191 383.082 26.0525 383.616Z" fill="black"/>
<path d="M26.0523 496.949C16.319 499.882 6.45232 508.816 2.31899 518.282C-0.881012 525.616 -0.481011 540.416 3.11899 547.216C7.51899 555.749 12.4523 560.816 19.919 564.816L26.719 568.416L95.2523 568.816L163.652 569.216L162.719 565.482C158.186 548.149 156.452 535.616 155.786 516.682L154.986 495.749L92.1857 495.882C57.6523 495.882 27.919 496.416 26.0523 496.949Z" fill="black"/>
<path d="M23.7858 611.216C20.7191 612.416 15.5191 615.616 12.3191 618.416C-4.34758 633.216 -4.08091 659.082 12.9858 673.616C23.5191 682.682 20.1858 682.416 138.319 682.149L244.586 681.749L235.252 674.416C217.652 660.682 199.786 640.416 186.852 619.349L180.452 609.082L104.852 609.216C41.7857 609.216 28.4524 609.616 23.7858 611.216Z" fill="black"/>
</svg>
